#!OML:ASF I:\Actors\actors\Patient Classification 2\Patient 1\Session 1\actor1.ASF
:FULLY-SPECIFIED
:DEGREES
345
root -0.281193 18.6397 4.78941 20.1655 -6.65163 -0.301758
lowerback 33.7398 -3.04321 1.14781
upperback 4.87922 -3.09512 2.63339
thorax -11.7495 -1.42635 3.43644
lowerneck -3.44973 -1.70501 -8.18939
upperneck -4.02073 -1.95977 4.6143
head -0.542553 -0.899292 2.89358
rclavicle 9.24349e-015 1.69961e-014
rhumerus 6.13335 21.274 -66.8268
rradius 144.731
rwrist 4.54226
rhand 1.43936 -31.6604
rfingers 7.12502
rthumb 26.9683 -59.7557
lclavicle 9.24349e-015 1.69961e-014
lhumerus -11.0553 -37.4625 92.5434
lradius 137.703
lwrist -9.80838
lhand -21.9776 -55.1581
lfingers 7.12502
lthumb 4.43041 -25.2245
rfemur -29.0703 4.79305 9.94289
rtibia 20.853
rfoot -18.2369 -9.22965
rtoes -13.4035
lfemur -36.722 7.78473 -16.9391
ltibia 35.5549
lfoot -17.4443 6.41929
ltoes -56.5861
346
root -0.285262 18.6397 4.78386 20.2194 -6.72403 -0.232842
lowerback 33.4712 -2.98846 1.20247
upperback 4.97473 -3.04811 2.41101
thorax -11.5488 -1.41313 3.13469
lowerneck -3.9308 -1.50188 -8.28996
upperneck -3.678 -1.64882 4.56014
head -0.370647 -0.741047 2.89159
rclavicle -1.77912e-014 1.60022e-014
rhumerus 3.71214 21.2937 -68.7631
rradius 144.753
rwrist 4.82372
rhand 1.70786 -29.1593
rfingers 7.12502
rthumb 27.2252 -57.2147
lclavicle -1.77912e-014 1.60022e-014
lhumerus -10.4813 -37.299 91.9568
lradius 137.819
lwrist -9.56264
lhand -22.1936 -55.5295
lfingers 7.12502
lthumb 4.22179 -25.5916
rfemur -29.1905 4.73231 9.90576
rtibia 20.8969
rfoot -18.2346 -9.25886
rtoes -13.8758
lfemur -36.811 7.84098 -17.0227
ltibia 35.5679
lfoot -17.422 6.40461
ltoes -56.6498
347
root -0.290825 18.6381 4.77572 20.3327 -6.73528 -0.163432
lowerback 33.2914 -2.91322 1.06047
upperback 4.95739 -3.01151 2.38468
thorax -11.4941 -1.39264 3.16154
lowerneck -3.90391 -1.41631 -8.23067
upperneck -3.60758 -1.53938 4.51654
head -0.361196 -0.687673 2.86683
rclavicle 1.20265e-014 -2.90226e-014
rhumerus 2.77566 21.285 -69.8025
rradius 145.04
rwrist 4.58902
rhand 3.38534 -27.9509
rfingers 7.12502
rthumb 28.8287 -55.7439
lclavicle 1.20265e-014 -2.90226e-014
lhumerus -10.1278 -36.9876 91.6504
lradius 137.962
lwrist -9.40676
lhand -23.0779 -55.6849
lfingers 7.12502
lthumb 3.36788 -25.7318
rfemur -29.4019 4.68247 9.85213
rtibia 20.9896
rfoot -18.2876 -9.32431
rtoes -14.1081
lfemur -36.991 7.86975 -17.11
ltibia 35.5848
lfoot -17.4069 6.34946
ltoes -56.5828
348
root -0.29702 18.6356 4.76788 20.4428 -6.69154 -0.07038
lowerback 33.0307 -2.87432 0.935492
upperback 5.01713 -3.02103 2.33181
thorax -11.3199 -1.39624 3.16227
lowerneck -4.12209 -1.40064 -8.14149
upperneck -3.40282 -1.50477 4.59027
head -0.260229 -0.671931 2.87308
rclavicle 1.43125e-014 1.41137e-014
rhumerus 2.66551 21.2239 -69.7422
rradius 145.12
rwrist 4.17287
rhand 4.65993 -27.2445
rfingers 7.12502
rthumb 30.0456 -54.8235
lclavicle 1.43125e-014 1.41137e-014
lhumerus -9.78105 -36.9256 91.2308
lradius 138.008
lwrist -9.4463
lhand -23.599 -55.6096
lfingers 7.12502
lthumb 2.8646 -25.649
rfemur -29.5991 4.70744 9.73263
rtibia 21.0899
rfoot -18.4195 -9.3904
rtoes -13.8098
lfemur -37.175 7.77152 -17.1906
ltibia 35.6144
lfoot -17.4058 6.39005
ltoes -56.5183
349
root -0.299517 18.6321 4.75746 20.5581 -6.73883 -0.0852816
lowerback 32.9123 -2.76701 0.791964
upperback 5.00135 -2.9371 2.34274
thorax -11.2879 -1.35388 3.2145
lowerneck -4.15245 -1.55488 -7.8341
upperneck -3.26157 -1.722 4.65107
head -0.197019 -0.786037 2.83134
rclavicle 1.68967e-015 1.88845e-015
rhumerus 2.61572 20.9023 -69.8169
rradius 145.209
rwrist 4.17265
rhand 5.03625 -27.2844
rfingers 7.12502
rthumb 30.4046 -54.7976
lclavicle 1.68967e-015 1.88845e-015
lhumerus -9.79943 -37.2771 91.1188
lradius 138
lwrist -9.58515
lhand -23.311 -55.0491
lfingers 7.12502
lthumb 3.14272 -25.0925
rfemur -29.8197 4.75828 9.7054
rtibia 21.1684
rfoot -18.3851 -9.40652
rtoes -13.7642
lfemur -37.345 7.71026 -17.176
ltibia 35.6431
lfoot -17.4271 6.56629
ltoes -56.4997
